<?xml version="1.0" encoding="iso-8859-1"?>
<!-- Uploaded to: SVG Repo, www.svgrepo.com, Generator: SVG Repo Mixer Tools -->
<svg height="800px" width="800px" version="1.1" id="Layer_1" xmlns="http://www.w3.org/2000/svg" xmlns:xlink="http://www.w3.org/1999/xlink" 
	 viewBox="0 0 511.999 511.999" xml:space="preserve">
<path style="fill:#57565C;" d="M303.407,401.066v44.525c0,15.711,12.736,28.444,28.444,28.444h94.815
	c15.709,0,28.444-12.734,28.444-28.444v-44.525"/>
<path style="fill:#6E76E5;" d="M511.996,266.799c0.064-5.805-0.69-40.721-26.876-67.527c-13.409-13.729-30.561-22.528-51.149-26.353
	L418.18,62.386c-2.002-14.014-14.004-24.422-28.16-24.422H255.999H121.977c-14.156,0-26.158,10.409-28.16,24.422l-15.79,110.533
	c-20.582,3.825-37.734,12.626-51.147,26.353C0.682,226.091-0.063,261.031,0.003,266.809v112.414
	c0,15.709,12.736,28.444,28.444,28.444h28.441h28.444h28.444h37.926h28.444h28.444h47.407h47.407h28.444h28.444h37.926h28.444
	h28.444h28.444c7.543,0,14.78-2.996,20.112-8.332c5.334-5.334,8.332-12.569,8.332-20.114L511.996,266.799z M123.259,317.629
	c-15.711,0-28.444-12.734-28.444-28.444c0-15.711,12.734-28.444,28.444-28.444c15.707,0,28.444,12.734,28.444,28.444
	C151.703,304.896,138.966,317.629,123.259,317.629z M255.999,170.704H135.81l10.837-75.852h109.352h109.352l10.837,75.852H255.999z
	 M388.74,317.629c-15.711,0-28.444-12.734-28.444-28.444c0-15.711,12.734-28.444,28.444-28.444
	c15.707,0,28.444,12.734,28.444,28.444C417.185,304.896,404.447,317.629,388.74,317.629z"/>
<path style="fill:#57565C;" d="M208.592,401.066H56.888v44.525c0,15.711,12.736,28.444,28.444,28.444h94.815
	c15.709,0,28.444-12.734,28.444-28.444V401.066"/>
<g>
	<polygon style="fill:#FFFFFF;" points="146.648,94.852 135.81,170.704 255.999,170.704 255.999,94.852 	"/>
	<polygon style="fill:#FFFFFF;" points="365.351,94.852 255.999,94.852 255.999,170.704 376.187,170.704 	"/>
</g>
<circle style="fill:#EE8700;" cx="123.259" cy="289.185" r="28.444"/>
<circle style="fill:#FFB655;" cx="388.74" cy="289.185" r="28.444"/>
<path style="fill:#424EDE;" d="M0.003,379.223c0,15.709,12.736,28.444,28.444,28.444h28.441h28.444h28.444h37.926h28.444h28.444
	h47.407V170.704H135.81l10.837-75.852h109.352V37.964H121.977c-14.156,0-26.158,10.409-28.16,24.422l-15.79,110.533
	c-20.582,3.825-37.734,12.626-51.147,26.353C0.682,226.091-0.063,261.031,0.003,266.809V379.223z M123.259,260.742
	c15.707,0,28.444,12.734,28.444,28.444s-12.737,28.444-28.444,28.444c-15.711,0-28.444-12.734-28.444-28.444
	S107.546,260.742,123.259,260.742z"/>
</svg>